<svg width="21" height="22" viewBox="0 0 21 22" fill="none" xmlns="http://www.w3.org/2000/svg">
<g id="1904675-configuration-edit-gear-options-preferences-setting-settings_122525 1" clip-path="url(#clip0_16212_28)">
<path id="Vector" d="M10.5 6.89844C9.68879 6.89844 8.89579 7.13899 8.2213 7.58968C7.5468 8.04036 7.02109 8.68094 6.71065 9.4304C6.40021 10.1799 6.31899 11.0045 6.47725 11.8002C6.63551 12.5958 7.02615 13.3266 7.59976 13.9002C8.17337 14.4739 8.9042 14.8645 9.69983 15.0228C10.4955 15.181 11.3201 15.0998 12.0696 14.7893C12.8191 14.4789 13.4596 13.9532 13.9103 13.2787C14.361 12.6042 14.6016 11.8112 14.6016 11C14.6016 9.9122 14.1694 8.86895 13.4002 8.09976C12.6311 7.33057 11.5878 6.89844 10.5 6.89844ZM10.5 14.1172C9.88348 14.1172 9.2808 13.9344 8.76818 13.5918C8.25557 13.2493 7.85603 12.7625 7.6201 12.1929C7.38416 11.6233 7.32243 10.9965 7.44271 10.3919C7.56299 9.78719 7.85987 9.23176 8.29582 8.79582C8.73176 8.35987 9.28719 8.06299 9.89187 7.94271C10.4965 7.82243 11.1233 7.88416 11.6929 8.12009C12.2625 8.35603 12.7493 8.75556 13.0918 9.26818C13.4344 9.7808 13.6172 10.3835 13.6172 11C13.6172 11.8267 13.2888 12.6196 12.7042 13.2042C12.1196 13.7888 11.3267 14.1172 10.5 14.1172Z" fill="black"/>
<path id="Vector_2" d="M19.8516 8.375H18.3865C18.3524 8.37475 18.3192 8.36387 18.2915 8.34387C18.2639 8.32387 18.2432 8.29576 18.2323 8.26344C18.1369 7.99263 18.0274 7.72703 17.9041 7.46773C17.8888 7.43714 17.8833 7.40249 17.8886 7.36866C17.8939 7.33482 17.9097 7.30349 17.9337 7.27906L18.9689 6.24219C19.0756 6.13554 19.1602 6.00894 19.2179 5.86959C19.2756 5.73025 19.3053 5.5809 19.3053 5.43008C19.3053 5.27925 19.2756 5.12991 19.2179 4.99056C19.1602 4.85122 19.0756 4.72461 18.9689 4.61797L16.8804 2.53109C16.7737 2.42444 16.6471 2.33984 16.5078 2.28211C16.3685 2.22439 16.2191 2.19468 16.0683 2.19468C15.9175 2.19468 15.7681 2.22439 15.6288 2.28211C15.4894 2.33984 15.3628 2.42444 15.2562 2.53109L14.2209 3.56633C14.1965 3.59033 14.1652 3.60608 14.1313 3.61137C14.0975 3.61667 14.0629 3.61124 14.0323 3.59586C13.773 3.47257 13.5074 3.36304 13.2366 3.26773C13.2042 3.25682 13.1761 3.2361 13.1561 3.20846C13.1361 3.18082 13.1253 3.14763 13.125 3.11352V1.64844C13.125 1.34385 13.004 1.05174 12.7886 0.83637C12.5733 0.620996 12.2811 0.5 11.9766 0.5H9.02344C8.71885 0.5 8.42674 0.620996 8.21137 0.83637C7.996 1.05174 7.875 1.34385 7.875 1.64844V3.11352C7.87475 3.14763 7.86387 3.18082 7.84387 3.20846C7.82387 3.2361 7.79576 3.25682 7.76344 3.26773C7.49263 3.36308 7.22703 3.47261 6.96773 3.59586C6.93714 3.61124 6.90249 3.61667 6.86866 3.61137C6.83482 3.60608 6.80349 3.59033 6.77906 3.56633L5.74219 2.53109C5.63554 2.42444 5.50894 2.33984 5.36959 2.28211C5.23025 2.22439 5.0809 2.19468 4.93008 2.19468C4.77925 2.19468 4.62991 2.22439 4.49056 2.28211C4.35122 2.33984 4.22461 2.42444 4.11797 2.53109L2.03109 4.61961C1.92444 4.72625 1.83984 4.85286 1.78211 4.9922C1.72439 5.13155 1.69468 5.28089 1.69468 5.43172C1.69468 5.58254 1.72439 5.73189 1.78211 5.87123C1.83984 6.01058 1.92444 6.13718 2.03109 6.24383L3.06633 7.27906C3.09033 7.30349 3.10608 7.33482 3.11137 7.36866C3.11667 7.40249 3.11124 7.43714 3.09586 7.46773C2.97257 7.72701 2.86304 7.99262 2.76773 8.26344C2.75682 8.29576 2.7361 8.32387 2.70846 8.34387C2.68082 8.36387 2.64763 8.37475 2.61352 8.375H1.14844C0.843853 8.375 0.551743 8.496 0.33637 8.71137C0.120996 8.92674 0 9.21885 0 9.52344L0 12.4766C0 12.7811 0.120996 13.0733 0.33637 13.2886C0.551743 13.504 0.843853 13.625 1.14844 13.625H2.61352C2.64763 13.6253 2.68082 13.6361 2.70846 13.6561C2.7361 13.6761 2.75682 13.7042 2.76773 13.7366C2.86308 14.0074 2.97261 14.273 3.09586 14.5323C3.11124 14.5629 3.11667 14.5975 3.11137 14.6313C3.10608 14.6652 3.09033 14.6965 3.06633 14.7209L2.03109 15.7578C1.92444 15.8645 1.83984 15.9911 1.78211 16.1304C1.72439 16.2697 1.69468 16.4191 1.69468 16.5699C1.69468 16.7207 1.72439 16.8701 1.78211 17.0094C1.83984 17.1488 1.92444 17.2754 2.03109 17.382L4.11961 19.4705C4.22625 19.5772 4.35286 19.6618 4.4922 19.7195C4.63155 19.7772 4.78089 19.807 4.93172 19.807C5.08254 19.807 5.23189 19.7772 5.37123 19.7195C5.51058 19.6618 5.63718 19.5772 5.74383 19.4705L6.77906 18.4353C6.80349 18.4113 6.83482 18.3956 6.86866 18.3903C6.90249 18.385 6.93714 18.3904 6.96773 18.4058C7.22701 18.5291 7.49262 18.6386 7.76344 18.7339C7.79576 18.7448 7.82387 18.7655 7.84387 18.7932C7.86387 18.8208 7.87475 18.854 7.875 18.8881V20.3516C7.875 20.6561 7.996 20.9483 8.21137 21.1636C8.42674 21.379 8.71885 21.5 9.02344 21.5H11.9766C12.2811 21.5 12.5733 21.379 12.7886 21.1636C13.004 20.9483 13.125 20.6561 13.125 20.3516V18.8865C13.1253 18.8524 13.1361 18.8192 13.1561 18.7915C13.1761 18.7639 13.2042 18.7432 13.2366 18.7323C13.5074 18.6369 13.773 18.5274 14.0323 18.4041C14.0629 18.3888 14.0975 18.3833 14.1313 18.3886C14.1652 18.3939 14.1965 18.4097 14.2209 18.4337L15.2578 19.4689C15.3645 19.5756 15.4911 19.6602 15.6304 19.7179C15.7697 19.7756 15.9191 19.8053 16.0699 19.8053C16.2207 19.8053 16.3701 19.7756 16.5094 19.7179C16.6488 19.6602 16.7754 19.5756 16.882 19.4689L18.9705 17.3804C19.0772 17.2737 19.1618 17.1471 19.2195 17.0078C19.2772 16.8685 19.307 16.7191 19.307 16.5683C19.307 16.4175 19.2772 16.2681 19.2195 16.1288C19.1618 15.9894 19.0772 15.8628 18.9705 15.7562L17.9353 14.7209C17.9113 14.6965 17.8956 14.6652 17.8903 14.6313C17.885 14.5975 17.8904 14.5629 17.9058 14.5323C18.0291 14.273 18.1386 14.0074 18.2339 13.7366C18.2448 13.7042 18.2655 13.6761 18.2932 13.6561C18.3208 13.6361 18.354 13.6253 18.3881 13.625H19.8516C20.1561 13.625 20.4483 13.504 20.6636 13.2886C20.879 13.0733 21 12.7811 21 12.4766V9.52344C21 9.21885 20.879 8.92674 20.6636 8.71137C20.4483 8.496 20.1561 8.375 19.8516 8.375ZM20.0156 12.4766C20.0156 12.5201 19.9983 12.5618 19.9676 12.5926C19.9368 12.6233 19.8951 12.6406 19.8516 12.6406H18.3865C18.1485 12.6409 17.9165 12.7151 17.7225 12.8529C17.5286 12.9908 17.3822 13.1854 17.3037 13.4101C17.2197 13.6479 17.1233 13.8812 17.0149 14.109C16.911 14.3237 16.8764 14.5654 16.9161 14.8006C16.9558 15.0358 17.0678 15.2528 17.2364 15.4215L18.2716 16.4567C18.3022 16.4875 18.3193 16.529 18.3193 16.5724C18.3193 16.6157 18.3022 16.6573 18.2716 16.688L16.1848 18.7733C16.154 18.8038 16.1124 18.821 16.0691 18.821C16.0258 18.821 15.9842 18.8038 15.9534 18.7733L14.9182 17.738C14.7495 17.5694 14.5325 17.4575 14.2973 17.4178C14.0621 17.3781 13.8204 17.4126 13.6057 17.5166C13.3774 17.625 13.1436 17.7214 12.9052 17.8053C12.6808 17.8841 12.4865 18.0306 12.349 18.2246C12.2114 18.4185 12.1375 18.6504 12.1373 18.8881V20.3516C12.1373 20.3951 12.1201 20.4368 12.0893 20.4676C12.0585 20.4983 12.0168 20.5156 11.9733 20.5156H9.02344C8.97993 20.5156 8.9382 20.4983 8.90743 20.4676C8.87666 20.4368 8.85938 20.3951 8.85938 20.3516V18.8865C8.85911 18.6485 8.78493 18.4165 8.64709 18.2225C8.50925 18.0286 8.31455 17.8822 8.08992 17.8037C7.85206 17.7197 7.61877 17.6233 7.39102 17.5149C7.17633 17.411 6.93461 17.3764 6.69941 17.4161C6.4642 17.4558 6.2472 17.5678 6.07852 17.7364L5.04328 18.7716C5.01254 18.8022 4.97096 18.8193 4.92762 18.8193C4.88427 18.8193 4.84269 18.8022 4.81195 18.7716L2.72672 16.6848C2.69616 16.654 2.67901 16.6124 2.67901 16.5691C2.67901 16.5258 2.69616 16.4842 2.72672 16.4534L3.76195 15.4182C3.9306 15.2495 4.04254 15.0325 4.08223 14.7973C4.12192 14.5621 4.08739 14.3204 3.98344 14.1057C3.87496 13.8774 3.77857 13.6436 3.69469 13.4052C3.61543 13.1817 3.46896 12.9883 3.27538 12.8514C3.0818 12.7145 2.8506 12.6409 2.61352 12.6406H1.14844C1.10493 12.6406 1.0632 12.6233 1.03243 12.5926C1.00166 12.5618 0.984375 12.5201 0.984375 12.4766V9.52344C0.984375 9.47993 1.00166 9.4382 1.03243 9.40743C1.0632 9.37666 1.10493 9.35938 1.14844 9.35938H2.61352C2.85148 9.35911 3.08348 9.28493 3.27746 9.14709C3.47143 9.00925 3.6178 8.81455 3.69633 8.58992C3.78027 8.35206 3.87666 8.11877 3.98508 7.89102C4.08903 7.67633 4.12356 7.43461 4.08387 7.19941C4.04418 6.9642 3.93224 6.7472 3.76359 6.57852L2.72836 5.54328C2.6978 5.51254 2.68065 5.47096 2.68065 5.42762C2.68065 5.38427 2.6978 5.34269 2.72836 5.31195L4.81523 3.22672C4.84597 3.19616 4.88756 3.17901 4.9309 3.17901C4.97424 3.17901 5.01582 3.19616 5.04656 3.22672L6.0818 4.26195C6.25048 4.4306 6.46749 4.54254 6.70269 4.58223C6.93789 4.62192 7.17961 4.58739 7.3943 4.48344C7.62258 4.37496 7.85642 4.27857 8.09484 4.19469C8.31829 4.11543 8.51174 3.96896 8.64862 3.77538C8.78551 3.5818 8.85913 3.3506 8.85938 3.11352V1.64844C8.85938 1.60493 8.87666 1.5632 8.90743 1.53243C8.9382 1.50166 8.97993 1.48438 9.02344 1.48438H11.9766C12.0201 1.48438 12.0618 1.50166 12.0926 1.53243C12.1233 1.5632 12.1406 1.60493 12.1406 1.64844V3.11352C12.1409 3.35148 12.2151 3.58348 12.3529 3.77746C12.4908 3.97143 12.6854 4.1178 12.9101 4.19633C13.1479 4.28027 13.3812 4.37666 13.609 4.48508C13.8237 4.58903 14.0654 4.62356 14.3006 4.58387C14.5358 4.54418 14.7528 4.43224 14.9215 4.26359L15.9567 3.22836C15.9875 3.1978 16.029 3.18065 16.0724 3.18065C16.1157 3.18065 16.1573 3.1978 16.188 3.22836L18.2766 5.31687C18.3071 5.34761 18.3243 5.3892 18.3243 5.43254C18.3243 5.47588 18.3071 5.51746 18.2766 5.5482L17.2413 6.58344C17.0727 6.75212 16.9607 6.96913 16.921 7.20433C16.8814 7.43953 16.9159 7.68125 17.0198 7.89594C17.1283 8.12422 17.2247 8.35806 17.3086 8.59648C17.3874 8.82081 17.5339 9.01515 17.7278 9.15268C17.9218 9.29021 18.1536 9.36415 18.3914 9.3643H19.8516C19.8951 9.3643 19.9368 9.38158 19.9676 9.41235C19.9983 9.44312 20.0156 9.48485 20.0156 9.52836V12.4766Z" fill="black"/>
</g>
<defs>
<clipPath id="clip0_16212_28">
<rect width="21" height="21" fill="white" transform="translate(0 0.5)"/>
</clipPath>
</defs>
</svg>
