<svg width="54" height="55" viewBox="0 0 54 55" fill="none" xmlns="http://www.w3.org/2000/svg">
<g id="Icon">
<circle id="Ellipse 4" cx="27" cy="27.5" r="27" fill="white"/>
<path id="Vector" d="M36.7032 35.2421C35.8707 34.4034 33.8545 33.1794 32.8763 32.6861C31.6024 32.0445 31.4975 31.9921 30.4962 32.7359C29.8284 33.2324 29.3843 33.6758 28.6027 33.5091C27.8211 33.3424 26.1225 32.4025 24.6353 30.9201C23.148 29.4377 22.1535 27.69 21.9863 26.911C21.8191 26.1321 22.2699 25.6933 22.7617 25.0239C23.4547 24.0803 23.4023 23.9231 22.8099 22.6493C22.348 21.6585 21.0883 19.6613 20.2464 18.8331C19.3457 17.9435 19.3457 18.1008 18.7654 18.3419C18.2929 18.5407 17.8397 18.7823 17.4113 19.0637C16.5725 19.621 16.107 20.0838 15.7814 20.7794C15.4559 21.4751 15.3096 23.1058 16.9909 26.1598C18.6721 29.2138 19.8516 30.7754 22.293 33.2098C24.7344 35.6442 26.6116 36.9531 29.356 38.4922C32.751 40.3935 34.0532 40.0229 34.7509 39.6979C35.4487 39.3728 35.9137 38.9115 36.472 38.0728C36.7542 37.6452 36.9964 37.1925 37.1954 36.7204C37.4371 36.1422 37.5944 36.1422 36.7032 35.2421Z" stroke="#CDA274" stroke-width="2" stroke-miterlimit="10"/>
</g>
</svg>
