<svg width="54" height="55" viewBox="0 0 54 55" fill="none" xmlns="http://www.w3.org/2000/svg">
<g id="Icon">
<circle id="Ellipse 4" cx="27" cy="27.5" r="27" fill="white"/>
<g id="Group 7">
<path id="Vector" d="M37.3858 28.0192C37.3858 21.9974 32.5037 17.1154 26.482 17.1154C20.4602 17.1154 15.5781 21.9974 15.5781 28.0192C15.5781 34.041 20.4602 38.923 26.482 38.923C32.5037 38.923 37.3858 34.041 37.3858 28.0192Z" stroke="#CDA274" stroke-width="2" stroke-miterlimit="10"/>
<path id="Vector_2" d="M36.8126 23.6898C35.9688 23.6951 36.0518 25.261 35.0005 24.5222C34.6101 24.2484 34.37 23.8505 33.8798 23.7295C33.4516 23.6238 33.0129 23.7337 32.59 23.8072C32.1092 23.8907 31.5392 23.9282 31.1745 24.2944C30.822 24.6469 30.6355 25.1199 30.2604 25.4745C29.5348 26.1615 29.2285 26.9114 29.6982 27.8828C30.15 28.8166 31.0952 29.3234 32.115 29.2568C33.117 29.1897 34.1578 28.6052 34.1289 30.0696C34.1184 30.5875 34.2261 30.9469 34.3842 31.4283C34.5308 31.8723 34.5208 32.3024 34.5544 32.7606C34.6164 33.6168 34.773 34.5765 35.1954 35.3327L35.9835 34.2145C36.0807 34.076 36.2841 33.8821 36.3324 33.7188C36.418 33.4297 36.2494 32.9329 36.2299 32.609C36.2105 32.285 36.22 31.9568 36.1706 31.6329C36.1012 31.1789 35.8343 30.7535 35.7975 30.3048C35.7298 29.4693 35.8816 28.8023 35.2417 28.1037C34.6238 27.4299 33.718 27.2682 32.8527 27.405C32.4166 27.4737 30.6612 27.7559 31.3658 26.7534C31.505 26.5563 31.7483 26.3946 31.9049 26.207C32.0409 26.0437 32.1591 25.7435 32.3189 25.6161C32.4786 25.4888 33.212 25.3424 33.4222 25.4074C33.6324 25.4724 33.8515 25.7773 34.0338 25.9126C34.3706 26.1678 34.7637 26.3375 35.1797 26.4073C35.8974 26.513 37.3979 26.0934 37.3864 25.1675C37.3843 24.7235 36.9744 24.1052 36.8126 23.6898ZM28.505 31.3084C28.225 30.1225 26.623 29.7261 25.7593 29.083C25.2627 28.713 24.8209 28.1417 24.1689 28.0952C23.8683 28.0736 23.6167 28.1391 23.3188 28.0614C23.0456 27.9906 22.8312 27.8426 22.5401 27.8812C21.9963 27.9531 21.6533 28.5376 21.069 28.4583C20.5147 28.3833 19.9436 27.7311 19.8175 27.2C19.6557 26.5172 20.1926 26.2958 20.768 26.235C21.0081 26.2096 21.2776 26.1821 21.5082 26.2704C21.8119 26.384 21.9554 26.6831 22.228 26.8343C22.7393 27.116 22.8428 26.6657 22.7645 26.2091C22.6473 25.5252 22.5107 25.2462 23.117 24.7759C23.5373 24.4514 23.8967 24.2167 23.8295 23.6338C23.7895 23.2914 23.603 23.1365 23.7769 22.7957C23.9088 22.5362 24.2708 22.3021 24.5067 22.1472C25.1156 21.7477 27.1153 21.7773 26.2983 20.659C26.0582 20.3308 25.6153 19.7442 25.195 19.6639C24.6696 19.564 24.4363 20.1538 24.0701 20.4138C23.6918 20.6828 22.9552 20.9883 22.5764 20.5724C22.0667 20.0127 22.9142 19.8288 23.1018 19.4383C23.2893 19.0477 22.6673 18.3094 22.3342 18.1223L20.768 19.889C20.723 20.1849 20.7386 20.4869 20.814 20.7765C20.8893 21.066 21.0228 21.337 21.2061 21.5728C21.5177 21.976 22.0137 22.1055 22.0363 22.6561C22.0583 23.1846 21.9764 23.4552 21.6328 23.8267C21.4841 23.9853 21.379 24.2104 21.2277 24.3589C21.0422 24.5402 21.111 24.4847 20.8215 24.5344C20.2772 24.6268 19.8138 24.7695 19.2879 24.9154C18.4115 25.159 18.3306 23.7189 17.9313 23.154L16.6178 24.221C16.6036 24.3959 16.8332 24.7177 16.8958 24.908C17.2546 25.9951 17.9786 26.8359 18.4462 27.8759C18.9385 28.9773 20.2604 28.6718 20.8441 29.6368C21.3622 30.4929 20.8089 31.5768 21.1967 32.4731C21.4783 33.1237 22.1424 33.2658 22.6005 33.7415C23.0687 34.2219 23.0587 34.8793 23.1301 35.5045C23.2107 36.2398 23.3415 36.9687 23.5216 37.686C23.5851 37.9339 23.6435 38.2615 23.8121 38.4661C23.9277 38.6066 24.3244 38.7277 24.1641 38.7742C24.388 38.8112 24.7867 39.0215 24.9733 38.8672C25.2191 38.6642 25.1535 38.0396 25.196 37.7574C25.3237 36.9171 25.7419 36.0953 26.3062 35.4664C26.8636 34.846 27.6276 34.4259 28.0983 33.7225C28.557 33.0365 28.6952 32.1111 28.505 31.3084ZM26.7507 32.6993C26.4354 33.2653 25.7335 33.6442 25.2822 34.094C25.1598 34.216 24.8992 34.6388 24.7458 34.5474C24.6359 34.4819 24.5986 33.9333 24.5582 33.8075C24.3495 33.1742 23.951 32.6213 23.4175 32.2247C23.2531 32.0995 22.8454 31.9367 22.7513 31.765C22.6463 31.5784 22.7408 31.1382 22.7445 30.9353C22.7503 30.6393 22.6163 30.1473 22.6888 29.8783C22.7729 29.5681 22.6111 29.7552 22.8869 29.6939C23.0324 29.6611 23.6335 29.7673 23.8147 29.8054C24.1027 29.8656 24.2613 30.0458 24.4883 30.2282C25.0852 30.7096 25.7424 31.0822 26.4113 31.4511C26.9293 31.7396 27.0817 32.1048 26.7507 32.6993ZM23.0939 18.1382C23.3429 18.3829 23.5773 18.6725 23.9487 18.6968C24.3002 18.7206 24.6317 18.5293 24.9386 18.7697C25.279 19.034 25.5244 19.3685 25.9762 19.4509C26.4134 19.5307 26.8763 19.2739 26.9845 18.8242C27.0896 18.3956 26.8631 17.9294 26.8495 17.4993C26.8495 17.4396 26.8815 17.1743 26.8405 17.1293C26.8101 17.0955 26.5558 17.1336 26.5169 17.1346C26.2321 17.1431 25.948 17.1628 25.6647 17.1938C24.6317 17.3063 23.62 17.567 22.6604 17.968C22.7881 18.0568 22.9484 18.0922 23.0939 18.1382ZM32.1276 21.1072C32.5737 21.1072 33.0266 20.9064 32.8826 20.3874C32.7618 19.9525 32.5558 19.4805 32.0546 19.7152C31.7357 19.8642 31.2838 20.2436 31.2465 20.6199C31.204 21.0469 31.8302 21.1072 32.1276 21.1072ZM31.7714 23.378C32.2269 23.6523 32.9026 23.5234 33.2462 23.1318C33.5147 22.8253 33.6728 22.2931 34.1557 22.2936C34.3682 22.2932 34.5725 22.3769 34.7242 22.5267C34.9238 22.7344 34.8844 22.9294 34.927 23.1894C35.0221 23.7733 35.6447 23.2227 35.807 22.9965C35.9121 22.849 36.0545 22.6303 36.0067 22.4384C35.9625 22.2593 35.7545 22.0685 35.662 21.9041C35.3919 21.4285 35.1697 20.8752 34.7651 20.491C34.3758 20.121 33.8972 20.1638 33.5278 20.5481C33.2252 20.8651 32.8737 21.1162 32.6667 21.502C32.5206 21.7731 32.3562 21.9025 32.0604 21.9728C31.8975 22.0114 31.7115 22.0257 31.5749 22.1356C31.1945 22.4368 31.411 23.1603 31.7714 23.378Z" fill="#CDA274"/>
</g>
</g>
</svg>
